<svg xmlns="http://www.w3.org/2000/svg" width="2048" height="2048" viewBox="0 0 2048 2048">
<g transform="translate(1024 1024) rotate(20) translate(-1024 -1024)">
  <circle cx="1024" cy="1024" r="1012" fill="none" stroke="#FDD209" stroke-width="12"/>
  <circle cx="1024" cy="1024" r="988" fill="none" stroke="#FDD209" stroke-width="12"/>
  <circle cx="1024" cy="1024" r="968" fill="#592E84"/>
  <polygon points="1024.0000,1104.0000 1118.2959,1394.2129 1423.4437,1394.2129 1176.5739,1573.5743 1270.8698,1863.7871 1024.0000,1684.4257 777.1302,1863.7871 871.4261,1573.5743 624.5563,1394.2129 929.7041,1394.2129" fill="none" stroke="#FDD209" stroke-width="25.2000" stroke-linejoin="arcs"/>
  <polygon points="1024.0000,1104.0000 1118.2959,1394.2129 1423.4437,1394.2129 1176.5739,1573.5743 1270.8698,1863.7871 1024.0000,1684.4257 777.1302,1863.7871 871.4261,1573.5743 624.5563,1394.2129 929.7041,1394.2129" fill="#FDD209" stroke="#592E84" stroke-width="14.7000" stroke-linejoin="arcs"/>
  <polygon points="954.7180,984.0000 656.2383,920.5562 503.6644,1184.8220 471.7678,881.3458 173.2881,817.9020 452.0545,693.7871 420.1579,390.3109 624.3417,617.0800 903.1081,492.9651 750.5342,757.2309" fill="none" stroke="#FDD209" stroke-width="25.2000" stroke-linejoin="arcs"/>
  <polygon points="954.7180,984.0000 656.2383,920.5562 503.6644,1184.8220 471.7678,881.3458 173.2881,817.9020 452.0545,693.7871 420.1579,390.3109 624.3417,617.0800 903.1081,492.9651 750.5342,757.2309" fill="#FDD209" stroke="#592E84" stroke-width="14.7000" stroke-linejoin="arcs"/>
  <polygon points="1093.2820,984.0000 1297.4658,757.2309 1144.8919,492.9651 1423.6583,617.0800 1627.8421,390.3109 1595.9455,693.7871 1874.7119,817.9020 1576.2322,881.3458 1544.3356,1184.8220 1391.7617,920.5562" fill="none" stroke="#FDD209" stroke-width="25.2000" stroke-linejoin="arcs"/>
  <polygon points="1093.2820,984.0000 1297.4658,757.2309 1144.8919,492.9651 1423.6583,617.0800 1627.8421,390.3109 1595.9455,693.7871 1874.7119,817.9020 1576.2322,881.3458 1544.3356,1184.8220 1391.7617,920.5562" fill="#FDD209" stroke="#592E84" stroke-width="14.7000" stroke-linejoin="arcs"/>
</g>
</svg>
